<?xml version="1.0" standalone="no"?>
<!DOCTYPE svg PUBLIC "-//W3C//DTD SVG 20010904//EN"
 "http://www.w3.org/TR/2001/REC-SVG-20010904/DTD/svg10.dtd">
<svg version="1.0" xmlns="http://www.w3.org/2000/svg"
 width="250.000000pt" height="350.000000pt" viewBox="0 0 250.000000 350.000000"
 preserveAspectRatio="xMidYMid meet">
<metadata>
Created by potrace 1.16, written by Peter Selinger 2001-2019
</metadata>
<g transform="translate(0.000000,350.000000) scale(0.100000,-0.100000)"
fill="#000000" stroke="none">
<path d="M940 1499 c-368 -61 -670 -386 -697 -751 l-6 -78 142 0 141 0 0 43
c0 112 63 249 158 345 l67 67 3 -282 2 -283 33 0 c26 0 43 10 82 51 52 53 81
72 128 83 l27 6 0 -209 c0 -198 -1 -211 -19 -221 -11 -5 -72 -10 -135 -10
l-116 0 0 -130 0 -130 500 0 500 0 0 131 0 131 -132 -6 c-73 -3 -166 -9 -207
-12 -113 -9 -156 1 -206 47 -71 65 -79 157 -21 233 39 51 93 68 209 64 l97 -3
0 63 0 62 33 0 c47 0 69 -28 75 -95 l4 -55 74 0 74 0 0 280 c0 154 4 280 9
280 5 0 37 -30 72 -68 90 -95 132 -187 154 -339 l7 -43 140 0 139 0 -6 58
c-33 303 -185 539 -436 676 -107 59 -270 106 -365 106 l-34 0 0 -145 c0 -80
-4 -145 -8 -145 -5 0 -45 27 -91 60 l-82 60 -75 -55 c-115 -85 -107 -91 -103
78 l4 147 -40 -1 c-22 -1 -65 -5 -95 -10z"/>
</g>
</svg>
